<svg xmlns="http://www.w3.org/2000/svg" width="110" height="37" viewBox="0 0 110 37" fill="none"><g clip-path="url(#clip0_5_2380)"><path fill-rule="evenodd" clip-rule="evenodd" d="M45.8683 0L33.957 13.3398L32.3133 11.8098L29.9446 14.4504L33.9397 18.3333L48.2779 2.34634L45.8683 0Z" fill="#24ED9B"></path><path fill-rule="evenodd" clip-rule="evenodd" d="M82.2642 27.3076C82.2785 25.9729 82.1147 24.6685 81.5501 23.4425C80.5338 21.2313 78.5045 20.7747 76.8712 21.3462C75.7834 21.7262 75.0995 22.5612 74.624 23.5734C73.9179 25.0788 73.7732 26.677 73.9179 28.315C74.0197 29.4692 74.3075 30.5676 74.9278 31.5574C75.4001 32.311 76.0283 32.8937 76.8856 33.1858C78.7813 33.8292 80.6515 32.9927 81.5326 31.1104C82.0956 29.9051 82.269 28.6231 82.2642 27.3076ZM73.5982 34.0911C73.5982 34.5413 73.6062 35.2661 73.5951 35.7163C73.5823 36.2272 73.4567 36.3645 72.9748 36.3709C72.2671 36.382 71.5578 36.382 70.8485 36.3709C70.4016 36.3629 70.2982 36.2559 70.2584 35.8137C70.2457 35.6572 70.2521 35.4975 70.2521 35.3395C70.2521 27.5566 70.2521 19.7737 70.2521 11.9908C70.2521 10.969 70.2648 10.9563 71.262 10.9563C71.8934 10.9563 72.5231 10.9499 73.1529 10.9579C73.7732 10.9675 73.8622 11.0585 73.8638 11.6939C73.867 14.2435 73.8638 16.7915 73.8638 19.3395V19.9877C74.3091 19.6077 74.6542 19.2612 75.0487 18.9867C77.1988 17.4891 79.7466 17.5849 81.7426 18.6163C83.3949 19.4943 84.6593 21.1308 85.2795 23.0273C86.2783 26.0782 86.2624 29.1372 85.006 32.1178C84.1043 34.2603 82.5982 35.8376 80.289 36.414C77.8318 37.0254 75.6466 36.5146 73.9243 34.5301C73.7445 34.3242 73.6539 34.0624 73.5982 34.0911Z" fill="white"></path><path fill-rule="evenodd" clip-rule="evenodd" d="M55.0555 27.3481C55.1 28.662 55.1763 29.9823 55.7425 31.2132C56.1274 32.045 56.6697 32.7443 57.5539 33.0684C58.6847 33.5793 60.4325 33.493 61.611 32.3579C62.0276 31.9556 62.4078 31.4703 62.667 30.953C63.583 29.1218 63.7326 27.1773 63.3382 25.1849C63.1345 24.1616 62.6909 23.2515 62.0022 22.4549C60.4516 20.6572 57.045 20.496 55.7966 23.3473C55.2368 24.6293 55.1079 25.9704 55.0555 27.3481ZM63.6896 20.049C63.6896 19.6834 63.6849 19.3178 63.6912 18.9538C63.6992 18.288 63.785 18.197 64.4402 18.1906C65.148 18.1843 65.8573 18.1811 66.565 18.1938C67.0755 18.2034 67.1789 18.3152 67.1852 18.8356C67.1948 19.5078 67.1884 35.4296 67.1884 35.4296C67.1884 36.3316 67.1471 36.3731 66.266 36.3747C65.6553 36.3747 65.0446 36.3827 64.4355 36.3715C63.9759 36.362 63.8773 36.2773 63.8343 35.8239C63.7882 35.3418 63.7771 34.7479 63.7516 34.2626C63.7516 34.2626 63.5433 34.4653 63.4001 34.6153C62.3394 35.8351 60.9908 36.4833 59.3892 36.619C55.9795 36.9063 53.5287 34.9857 52.3327 32.0737C51.5169 30.0909 51.3594 28.0186 51.5455 25.9081C51.687 24.318 52.0815 22.7965 52.8798 21.4028C53.8993 19.6259 55.337 18.3679 57.3854 17.9751C59.6119 17.5473 61.6062 18.023 63.2189 19.7201C63.3349 19.843 63.4574 19.9596 63.5751 20.0809C63.5751 20.0809 63.669 20.1926 63.6849 20.1831C63.6928 20.1783 63.6896 20.049 63.6896 20.049Z" fill="white"></path><path fill-rule="evenodd" clip-rule="evenodd" d="M27.1853 16.7874L29.8174 19.2636L24.0475 25.4836C24.3067 25.9322 28.1061 32.4746 29.8349 35.3706C30.2515 36.0683 30.0925 36.4355 29.2369 36.3844C28.4719 36.3381 27.7006 36.3493 26.934 36.3844C26.4792 36.4036 26.2184 36.2407 25.9957 35.8448C24.655 33.4517 21.5633 28.073 21.5633 28.073C21.5633 28.073 19.507 30.3896 19.0251 30.9116C18.7976 31.1575 18.6943 31.4177 18.699 31.7594C18.7149 32.9839 18.7086 35.7522 18.6927 35.9086C18.6625 36.2088 18.4939 36.3716 18.1854 36.3716C17.3186 36.3716 16.4534 36.3732 15.5867 36.3716C15.2797 36.37 15.1096 36.212 15.0873 35.9055L15.0793 11.8974C15.0793 10.989 15.1096 10.9586 16.0002 10.9571C16.6888 10.9555 17.379 10.9475 18.0677 10.9602C18.5686 10.9714 18.68 11.0959 18.7038 11.6036C18.7102 11.7617 18.7054 25.6959 18.7054 25.905L27.1853 16.7874Z" fill="white"></path><path fill-rule="evenodd" clip-rule="evenodd" d="M98.5984 25.4587H106.522C106.442 24.274 106.189 23.1852 105.423 22.3008C104.368 21.0858 102.983 20.931 101.528 21.279C99.8945 21.6701 98.5761 23.5955 98.5984 25.4587ZM98.4918 28.6755C98.7145 30.2497 99.1423 31.6546 100.438 32.6301C101.176 33.1841 102.027 33.398 102.934 33.3884C104.165 33.374 105.303 33.0483 106.302 32.2996C106.38 32.2405 106.466 32.1926 106.588 32.1128C107.452 32.737 108.325 33.3677 109.235 34.027C108.289 34.9658 107.272 35.6858 106.068 36.1104C104.235 36.7538 102.361 36.8576 100.496 36.3227C97.9081 35.582 96.2494 33.8035 95.4319 31.289C94.4586 28.2988 94.5015 25.2878 95.7643 22.379C96.8139 19.9571 98.6413 18.3957 101.277 17.9535C103.441 17.5895 105.48 17.9407 107.221 19.3903C108.697 20.6181 109.461 22.2577 109.804 24.1176C110.046 25.4267 110.025 26.7486 109.943 28.0721C109.911 28.5558 109.803 28.6548 109.335 28.674C109.197 28.6788 98.751 28.6755 98.4918 28.6755Z" fill="white"></path><path fill-rule="evenodd" clip-rule="evenodd" d="M12.2182 20.4976C12.3486 20.2821 12.0782 20.0139 12.021 19.9676C9.73879 18.1428 7.14328 17.4483 4.25833 18.0342C2.5598 18.3775 1.17776 19.4711 0.497083 20.967C-0.220177 22.6481 -0.212225 24.3116 0.86287 25.865C1.41632 26.6648 2.20992 27.2093 3.08781 27.5701C4.51596 28.1256 7.82552 29.2736 8.65095 29.6806C9.0024 29.8355 9.27758 30.0989 9.41753 30.4661C9.76898 31.3889 9.66882 32.8545 8.11659 33.3031C7.24185 33.5553 6.3624 33.5091 5.4845 33.3574C4.13269 33.1243 3.33272 32.7986 2.29103 31.9158C2.1638 31.8088 1.92206 31.7976 1.80596 31.9141C1.67396 32.0467 0.0597295 33.806 0.0597295 33.806C-0.0754528 34.0886 0.10108 34.2498 0.439829 34.5515C0.702239 34.783 1.63739 35.428 2.05088 35.6228C4.14859 36.6062 6.34969 36.8809 8.61434 36.4785C11.0222 36.0507 12.6603 34.6218 12.9752 32.0945C13.166 30.5715 12.9656 29.1298 11.881 27.9421C11.2465 27.246 10.4576 26.7527 9.58766 26.4174C8.48711 25.9927 5.38431 25.0189 4.50006 24.5415C3.86232 24.2637 3.54106 23.7768 3.54424 23.0536C3.54584 22.2873 3.83528 21.703 4.5112 21.3565C4.80223 21.208 5.1378 21.1123 5.46383 21.0724C7.01922 20.884 8.42508 21.2911 9.68788 22.2091C9.77216 22.2697 9.85484 22.332 9.93917 22.3958C10.122 22.5347 10.3813 22.514 10.5371 22.3448C10.5371 22.3448 12.1434 20.6221 12.2182 20.4976Z" fill="white"></path><path fill-rule="evenodd" clip-rule="evenodd" d="M88.5087 23.6274C88.5087 19.7176 88.5087 15.8078 88.5087 11.898C88.5087 11.0087 88.5596 10.9576 89.4407 10.956C90.1293 10.9544 90.818 10.9465 91.5066 10.9608C91.9917 10.9704 92.0919 11.0822 92.1141 11.5563C92.1205 11.6745 92.1157 27.5899 92.1157 35.4287C92.1157 36.3387 92.0807 36.3738 91.1965 36.3738C90.5078 36.3738 89.8192 36.3818 89.1306 36.3706C88.6646 36.3626 88.5405 36.2302 88.5119 35.7703C88.5008 35.6139 88.5087 27.5181 88.5087 23.6274Z" fill="white"></path><path fill-rule="evenodd" clip-rule="evenodd" d="M45.2032 36.3586H48.8134V10.2878H45.2032V36.3586Z" fill="white"></path><path fill-rule="evenodd" clip-rule="evenodd" d="M38.511 36.3587H42.118V17.5439H38.511V36.3587Z" fill="white"></path><path fill-rule="evenodd" clip-rule="evenodd" d="M31.8203 36.3587H35.4225V22.8284H31.8203V36.3587Z" fill="white"></path></g><defs><clipPath id="clip0_5_2380"><rect width="110" height="36.6667" fill="white"></rect></clipPath></defs></svg>